HIERARCHY
ROOT Hips
{
  OFFSET -114.312 89.4271 -51.7606
  CHANNELS 6 Xposition Yposition Zposition Zrotation Xrotation Yrotation
  JOINT RightUpLeg
  {
    OFFSET -8.9458 -8.66707 0.101652
    CHANNELS 3 Zrotation Xrotation Yrotation
    JOINT RightLeg
    {
      OFFSET 0 -44.4227 1.3727
      CHANNELS 3 Zrotation Xrotation Yrotation
      JOINT RightFoot
      {
        OFFSET 0.253549 -42.0924 -1.46059
        CHANNELS 3 Zrotation Xrotation Yrotation
        JOINT RightToes
        {
          OFFSET 0.04 -4.41509 8.4991
          CHANNELS 3 Zrotation Xrotation Yrotation
          End Site
          {
            OFFSET -0.08 -0.137448 9.77979
          }
        }
      }
    }
  }
  JOINT Spine
  {
    OFFSET 0 11.8905 0
    CHANNELS 3 Zrotation Xrotation Yrotation
    JOINT Spine1
    {
      OFFSET 0 25.6574 0.127663
      CHANNELS 3 Zrotation Xrotation Yrotation
      JOINT HEad
      {
        OFFSET 0 8.73416 0.011341
        CHANNELS 3 Zrotation Xrotation Yrotation
        End Site
        {
          OFFSET -0.29 12.7742 2.51395
        }
      }
      JOINT LeftShoulder1
      {
        OFFSET 8.99 -0.362252 -0.22
        CHANNELS 3 Zrotation Xrotation Yrotation
        JOINT LeftArm
        {
          OFFSET 10.2827 -0.00338 0.322123
          CHANNELS 3 Zrotation Xrotation Yrotation
          JOINT LeftForeArm
          {
            OFFSET 32.7669 0.099144 -1.42434
            CHANNELS 3 Zrotation Xrotation Yrotation
            JOINT LeftHand
            {
              OFFSET 27.5643 0.085362 1.02216
              CHANNELS 3 Zrotation Xrotation Yrotation
              End Site
              {
                OFFSET 16.7443 -0.6 1.50291
              }
            }
          }
        }
      }
      JOINT RightShoulder
      {
        OFFSET -8.99 -0.362252 -0.22
        CHANNELS 3 Zrotation Xrotation Yrotation
        JOINT RightArm
        {
          OFFSET -10.2827 -0.00338 0.322123
          CHANNELS 3 Zrotation Xrotation Yrotation
          JOINT RightForeArm
          {
            OFFSET -32.8971 0.099144 -1.42434
            CHANNELS 3 Zrotation Xrotation Yrotation
            JOINT RightHand
            {
              OFFSET -27.4921 0.085362 1.02216
              CHANNELS 3 Zrotation Xrotation Yrotation
              End Site
              {
                OFFSET -16.6312 -0.6 1.50291
              }
            }
          }
        }
      }
    }
  }
  JOINT LeftUpLeg
  {
    OFFSET 8.9458 -8.66707 0.101652
    CHANNELS 3 Zrotation Xrotation Yrotation
    JOINT LeftLeg
    {
      OFFSET 0 -44.4227 1.3727
      CHANNELS 3 Zrotation Xrotation Yrotation
      JOINT LeftFoot
      {
        OFFSET -0.253549 -42.0924 -1.46059
        CHANNELS 3 Zrotation Xrotation Yrotation
        JOINT LeftToes
        {
          OFFSET -0.04 -4.41509 8.4991
          CHANNELS 3 Zrotation Xrotation Yrotation
          End Site
          {
            OFFSET 0.08 -0.047448 9.77979
          }
        }
      }
    }
  }
}
MOTION
Frames:	11
Frame Time:	0.0166667
-114.312 89.4271 -51.7606 -11.8256 -15.3072 -24.8798 -6.15393 -2.02517 5.65409 0.507513 52.9065 -0.721567 49.2307 44.1143 -23.558 -85.5648 -50.8357 -33.2761 2.0082 13.1292 -3.86935 6.49769 25.9171 -9.40428 -1.66179 -14.208 36.0721 -1.59028e-015 -3.18055e-015 -6.36111e-015 -32.676 -30.7014 -47.5805 -27.7599 -53.3231 -37.539 -10.7809 13.6876 -32.771 28.3218 7.67007 23.0294 46.0036 -25.0455 55.3633 36.2157 52.7163 93.9757 -5.44082 10.0064 -6.93778 22.891 -13.016 -12.4854 2.90365 24.9682 -1.69357 -16.1404 17.8723 3.47723 -3.37448 -12.1027 -4.64274 
-115.008 88.4658 -50.6026 -10.5862 -17.119 -17.3205 -6.40893 2.35313 5.52052 9.05749 52.4331 -9.1696 37.8233 37.331 -15.291 -78.1882 -46.4372 -34.9174 2.75975 12.5465 -5.91234 6.66561 24.8251 -13.2595 0.542523 -10.8148 33.58 1.59028e-015 0 -0 -29.0037 -25.9148 -55.1213 -19.5116 -64.5225 -26.4056 -12.6086 14.0004 -30.4607 29.0601 7.35915 21.4993 45.1298 -28.9353 56.214 40.3109 52.762 90.8017 -1.58707 9.91814 -6.72867 20.7928 -13.5566 -8.76213 5.89889 19.9223 -11.4185 -17.791 19.9251 4.15892 -3.64238 -12.8902 -5.10563 
-115.444 87.5342 -49.3097 -8.77688 -18.2913 -11.9579 -6.66456 6.00479 5.76815 14.5131 51.9481 -12.8453 27.9695 25.7227 -8.22642 -65.1217 -41.7092 -31.7216 2.81926 11.9087 -6.66549 5.78872 23.7332 -14.4378 2.27383 -8.55261 29.5086 -1.59028e-015 -1.59028e-015 -6.36111e-015 -27.9122 -22.3254 -59.6935 -18.6515 -65.8277 -24.6206 -14.4308 14.4277 -29.505 26.8574 6.6499 20.7642 49.8694 -34.0744 60.2066 45.6779 53.8832 85.2711 2.32488 9.76124 -9.61472 18.9143 -14.6038 -4.8554 6.61892 18.7123 -19.4275 -18.3826 19.338 4.21245 -4.17743 -14.5019 -5.42836 
-115.388 86.7614 -48.1012 -7.14839 -18.7602 -10.0466 -7.37632 8.70342 6.91835 16.8594 51.5038 -12.9671 21.3622 13.2049 -3.94772 -51.8834 -37.0107 -26.395 2.35323 11.4744 -5.79157 4.41675 22.9923 -12.4137 2.823 -8.18023 24.0819 -7.95139e-016 3.18055e-015 -6.36111e-015 -29.5316 -19.2494 -61.1037 -26.3621 -58.4984 -33.9485 -16.1563 15.088 -30.4069 22.0082 5.5678 20.5582 60.0067 -38.7447 68.2636 50.8629 54.7303 77.6802 6.21123 9.27648 -14.7263 17.9415 -15.7196 -2.68472 5.74877 21.1201 -23.0089 -17.3006 16.3248 3.51429 -4.52855 -15.7334 -4.75604 
-114.727 86.2552 -47.1107 -6.20863 -18.809 -11.6791 -8.95996 10.362 8.89786 16.7153 50.6928 -11.0136 17.2212 4.64637 -1.94982 -43.4712 -33.5969 -22.187 1.8323 11.3344 -3.44055 2.99782 22.7802 -7.45973 1.89152 -9.46465 17.7882 -8.82781e-032 1.59028e-015 3.18055e-015 -36.0144 -18.6027 -60.5128 -30.6618 -40.0347 -42.2108 -14.1267 14.7154 -32.2282 15.6508 4.20354 20.2692 73.087 -40.7815 79.5713 52.7754 54.286 69.4658 9.65797 8.54908 -19.296 18.0614 -16.2153 -2.51063 3.46831 25.0158 -21.1968 -15.7758 12.8842 2.73787 -4.72958 -16.5243 -4.1132 
-113.49 86.1041 -46.3049 -6.05524 -18.5833 -16.0235 -11.3716 10.5888 10.9214 14.9379 49.66 -7.47707 14.4742 1.78156 -1.30802 -40.5118 -32.3072 -20.3334 1.63657 11.444 -0.196061 1.7038 23.0772 -0.59672 -0.312694 -11.6399 11.5018 0 1.59028e-015 -0 -48.5425 -22.8234 -58.8918 -31.3148 -11.4882 -48.1658 -6.73018 12.2889 -31.8544 8.8532 2.76293 19.5857 85.558 -39.2957 91.7809 49.4058 52.8695 60.614 11.9169 8.22954 -19.5003 18.9473 -15.8354 -3.49728 -0.144643 28.5766 -14.9957 -14.4014 10.4387 2.19719 -5.01768 -17.3909 -4.29626 
-111.853 86.2795 -45.5923 -6.43102 -18.0439 -21.8571 -14.1835 9.01221 12.0127 12.1235 48.9605 -2.50754 13.5173 3.64725 -1.43534 -41.8706 -33.0887 -20.36 1.7159 11.7889 3.18608 0.549601 23.8121 6.65214 -3.31733 -14.1859 6.35827 -7.95139e-016 -3.18055e-015 1.59028e-015 -62.9533 -31.1737 -56.0887 -31.478 18.6368 -56.3399 2.60415 9.37993 -26.8476 1.89805 1.38697 18.7434 95 -34.5997 102.605 41.2338 51.7185 49.7875 12.2589 8.9012 -13.2008 19.9493 -14.8278 -4.39247 -4.07237 30.9926 -6.89533 -12.7906 9.30475 1.82154 -5.54607 -18.8195 -5.03033 
-110.104 86.6941 -44.9269 -6.97129 -17.206 -28.0696 -16.765 5.74803 11.6429 8.34315 48.8896 3.70312 15.4825 8.62471 -2.2696 -46.578 -35.5811 -21.2 1.70497 12.3623 6.09527 -0.541105 24.9015 12.9016 -6.53987 -17.0116 3.18399 7.95139e-016 -3.18055e-015 1.59028e-015 -67.4864 -34.7281 -47.3435 -24.9006 33.1242 -73.8894 8.964 8.22707 -18.8375 -5.2382 0.0943526 18.0226 76.4084 -26.7751 98.2439 13.4163 24.6122 52.4464 20.6465 9.39578 -7.03335 20.5004 -13.5133 -4.39821 -6.79575 32.2476 0.62148 -10.9544 9.03827 1.52447 -6.19374 -20.5347 -5.75961 
-108.55 87.2279 -44.3167 -7.41317 -16.223 -33.8828 -18.626 1.47488 10.1044 3.60188 49.1418 10.4808 21.0609 15.6163 -4.32047 -54.2086 -39.5108 -22.3132 1.31211 13.0348 8.2339 -1.63563 26.101 17.4232 -9.2621 -20.0409 2.12953 -2.78299e-015 -3.18055e-015 7.95139e-016 -67.1272 -35.1263 -35.513 -15.6882 35.03 -92.2985 10.836 8.36262 -13.1104 -11.8799 -1.0263 17.3625 56.4548 -19.3848 96.1903 -6.71819 -6.13882 40.1688 30.1423 10.7671 -1.13213 20.4641 -12.1147 -3.76361 -7.83792 32.7145 6.4457 -9.49706 8.65168 1.28195 -6.48783 -21.3963 -5.79815 
-107.407 87.7094 -43.8057 -7.63551 -15.3134 -38.7667 -19.6712 -2.90467 8.27216 -1.39144 49.2479 16.5644 30.0782 23.5538 -8.30318 -64.1011 -44.3472 -23.8013 0.502199 13.5847 9.55438 -2.66114 27.0475 20.0633 -10.706 -22.8873 2.98569 7.95139e-016 0 -1.59028e-015 -66.5829 -37.2719 -24.8953 -12.6702 34.9522 -101.598 9.05096 8.6317 -13.1539 -16.4114 -1.73032 16.7245 52.115 -15.21 99.997 -16.4752 -17.0248 29.697 31.2042 10.6687 -1.59346 20.1208 -10.8315 -3.40766 -8.13784 32.7958 10.8304 -8.94592 7.19895 1.09949 -5.98496 -20.3313 -4.57023 
-106.73 88.0293 -43.419 -7.7329 -14.6323 -42.2841 -20.0139 -6.55514 6.93912 -5.31231 49.1976 20.9873 40.8335 30.3424 -13.9854 -73.6997 -48.7945 -25.3644 -0.351566 13.8722 10.0458 -3.35803 27.5537 20.907 -10.5202 -24.949 5.45832 -7.95139e-016 6.36111e-015 -1.59028e-015 -64.5307 -40.2132 -16.6426 -16.3669 35.6673 -101.547 4.55607 9.15999 -17.7351 -17.1862 -1.82315 16.4072 59.8854 -11.4954 104.145 -15.4454 -15.44 32.7441 29.8283 8.96125 -7.80573 19.9599 -9.7972 -4.00808 -8.91644 32.7176 14.3946 -9.29947 4.58801 0.950681 -4.82833 -17.3083 -2.42479 
